<svg width="152" height="76" viewBox="0 0 152 76" fill="none" xmlns="http://www.w3.org/2000/svg">
<path d="M0 76L26 38L0 0V76Z" fill="#23F3A8"/>
<path d="M27 76L50 38L27 0V76Z" fill="#23F3A8"/>
<path d="M52 76L72 38L52 0V76Z" fill="#23F3A8"/>
<path d="M74 76L92 38L74 0V76Z" fill="#23F3A8"/>
<path d="M93 76L109 38L93 0V76Z" fill="#23F3A8"/>
<path d="M110 76L123 38L110 0V76Z" fill="#23F3A8"/>
<path d="M125 76L135 38L125 0V76Z" fill="#23F3A8"/>
<path d="M137 76L145 38L137 0V76Z" fill="#23F3A8"/>
<path d="M146 0V76L152 38L146 0Z" fill="#23F3A8"/>
</svg>
