<svg width="309" height="193" viewBox="0 0 309 193" fill="none" xmlns="http://www.w3.org/2000/svg">
<path d="M56.0682 96.5V0C56.0726 6.33735 54.6254 12.6133 51.8093 18.469C48.9931 24.3247 44.8633 29.6452 39.6561 34.1264C34.4488 38.6076 28.2661 42.1615 21.4616 44.5849C14.6571 47.0084 7.36422 48.2538 0 48.25C7.36422 48.2462 14.6571 49.4916 21.4616 51.9151C28.2661 54.3385 34.4488 57.8924 39.6561 62.3736C44.8633 66.8548 48.9931 72.1753 51.8093 78.031C54.6254 83.8867 56.0726 90.1626 56.0682 96.5Z" fill="#23F3A8"/>
<path d="M112.136 96.5V0C112.141 6.33735 110.693 12.6133 107.877 18.469C105.061 24.3247 100.931 29.6452 95.7242 34.1264C90.5169 38.6076 84.3342 42.1615 77.5297 44.5849C70.7252 47.0084 63.4323 48.2538 56.0681 48.25C63.4323 48.2462 70.7252 49.4916 77.5297 51.9151C84.3342 54.3385 90.5169 57.8924 95.7242 62.3736C100.931 66.8548 105.061 72.1753 107.877 78.031C110.693 83.8867 112.141 90.1626 112.136 96.5Z" fill="#23F3A8"/>
<path d="M168.205 96.5V0C168.209 6.33735 166.762 12.6133 163.946 18.469C161.13 24.3247 157 29.6452 151.793 34.1264C146.585 38.6076 140.403 42.1615 133.598 44.5849C126.794 47.0084 119.501 48.2538 112.137 48.25C119.501 48.2462 126.794 49.4916 133.598 51.9151C140.403 54.3385 146.585 57.8924 151.793 62.3736C157 66.8548 161.13 72.1753 163.946 78.031C166.762 83.8867 168.209 90.1626 168.205 96.5Z" fill="#23F3A8"/>
<path d="M224.272 96.5V0C224.277 6.33735 222.829 12.6133 220.013 18.469C217.197 24.3247 213.067 29.6452 207.86 34.1264C202.653 38.6076 196.47 42.1615 189.666 44.5849C182.861 47.0084 175.568 48.2538 168.204 48.25C175.568 48.2462 182.861 49.4916 189.666 51.9151C196.47 54.3385 202.653 57.8924 207.86 62.3736C213.067 66.8548 217.197 72.1753 220.013 78.031C222.829 83.8867 224.277 90.1626 224.272 96.5Z" fill="#23F3A8"/>
<path d="M280.341 96.5V0C280.345 6.33735 278.898 12.6133 276.082 18.469C273.266 24.3247 269.136 29.6452 263.929 34.1264C258.721 38.6076 252.539 42.1615 245.734 44.5849C238.93 47.0084 231.637 48.2538 224.272 48.25C231.637 48.2462 238.93 49.4916 245.734 51.9151C252.539 54.3385 258.721 57.8924 263.929 62.3736C269.136 66.8548 273.266 72.1753 276.082 78.031C278.898 83.8867 280.345 90.1626 280.341 96.5Z" fill="#23F3A8"/>
<path d="M252.307 96.5V193C252.302 186.663 253.75 180.387 256.566 174.531C259.382 168.675 263.512 163.355 268.719 158.874C273.926 154.392 280.109 150.839 286.913 148.415C293.718 145.992 301.011 144.746 308.375 144.75C301.011 144.754 293.718 143.508 286.913 141.085C280.109 138.661 273.926 135.108 268.719 130.626C263.512 126.145 259.382 120.825 256.566 114.969C253.75 109.113 252.302 102.837 252.307 96.5Z" fill="#23F3A8"/>
<path d="M196.238 96.5V193C196.234 186.663 197.681 180.387 200.497 174.531C203.313 168.675 207.443 163.355 212.65 158.874C217.858 154.392 224.04 150.839 230.845 148.415C237.649 145.992 244.942 144.746 252.306 144.75C244.942 144.754 237.649 143.508 230.845 141.085C224.04 138.661 217.858 135.108 212.65 130.626C207.443 126.145 203.313 120.825 200.497 114.969C197.681 109.113 196.234 102.837 196.238 96.5Z" fill="#23F3A8"/>
<path d="M140.171 96.5V193C140.166 186.663 141.614 180.387 144.43 174.531C147.246 168.675 151.376 163.355 156.583 158.874C161.79 154.392 167.973 150.839 174.777 148.415C181.582 145.992 188.875 144.746 196.239 144.75C188.875 144.754 181.582 143.508 174.777 141.085C167.973 138.661 161.79 135.108 156.583 130.626C151.376 126.145 147.246 120.825 144.43 114.969C141.614 109.113 140.166 102.837 140.171 96.5Z" fill="#23F3A8"/>
<path d="M84.1025 96.5V193C84.0981 186.663 85.5454 180.387 88.3615 174.531C91.1776 168.675 95.3074 163.355 100.515 158.874C105.722 154.392 111.905 150.839 118.709 148.415C125.514 145.992 132.807 144.746 140.171 144.75C132.807 144.754 125.514 143.508 118.709 141.085C111.905 138.661 105.722 135.108 100.515 130.626C95.3074 126.145 91.1776 120.825 88.3615 114.969C85.5454 109.113 84.0981 102.837 84.1025 96.5Z" fill="#23F3A8"/>
<path d="M28.0342 96.5V193C28.0298 186.663 29.477 180.387 32.2931 174.531C35.1092 168.675 39.239 163.355 44.4463 158.874C49.6536 154.392 55.8363 150.839 62.6408 148.415C69.4453 145.992 76.7381 144.746 84.1024 144.75C76.7381 144.754 69.4453 143.508 62.6408 141.085C55.8363 138.661 49.6536 135.108 44.4463 130.626C39.239 126.145 35.1092 120.825 32.2931 114.969C29.477 109.113 28.0298 102.837 28.0342 96.5Z" fill="#23F3A8"/>
</svg>
