<svg width="263" height="138" viewBox="0 0 263 138" fill="none" xmlns="http://www.w3.org/2000/svg">
<path d="M26.1909 137.19C11.7261 137.19 2.28882e-05 106.479 2.28882e-05 68.5952C2.28882e-05 30.7111 11.7261 0 26.1909 0C40.6558 0 52.3818 30.7111 52.3818 68.5952C52.3818 106.479 40.6558 137.19 26.1909 137.19Z" fill="#23F3A8"/>
<path d="M78.5722 137.19C65.9155 137.19 55.6552 106.479 55.6552 68.5952C55.6552 30.7111 65.9155 0 78.5722 0C91.2289 0 101.489 30.7111 101.489 68.5952C101.489 106.479 91.2289 137.19 78.5722 137.19Z" fill="#23F3A8"/>
<path d="M123.861 137.19C112.711 137.19 103.672 106.479 103.672 68.5952C103.672 30.7111 112.711 0 123.861 0C135.011 0 144.05 30.7111 144.05 68.5952C144.05 106.479 135.011 137.19 123.861 137.19Z" fill="#23F3A8"/>
<path d="M164.238 137.19C154.896 137.19 147.323 106.479 147.323 68.5952C147.323 30.7111 154.896 0 164.238 0C173.58 0 181.153 30.7111 181.153 68.5952C181.153 106.479 173.58 137.19 164.238 137.19Z" fill="#23F3A8"/>
<path d="M196.977 137.19C189.443 137.19 183.336 106.479 183.336 68.5952C183.336 30.7111 189.443 0 196.977 0C204.511 0 210.618 30.7111 210.618 68.5952C210.618 106.479 204.511 137.19 196.977 137.19Z" fill="#23F3A8"/>
<path d="M223.714 137.19C217.687 137.19 212.801 106.479 212.801 68.5952C212.801 30.7111 217.687 0 223.714 0C229.741 0 234.627 30.7111 234.627 68.5952C234.627 106.479 229.741 137.19 223.714 137.19Z" fill="#23F3A8"/>
<path d="M244.448 0C248.667 0 252.087 30.7115 252.087 68.5952C252.087 106.479 248.667 137.19 244.448 137.19C240.229 137.19 236.809 106.479 236.809 68.5952C236.809 30.7115 240.229 0 244.448 0Z" fill="#23F3A8"/>
<path d="M258.635 137.19C256.224 137.19 254.27 106.479 254.27 68.5952C254.27 30.7111 256.224 0 258.635 0C261.046 0 263 30.7111 263 68.5952C263 106.479 261.046 137.19 258.635 137.19Z" fill="#23F3A8"/>
</svg>
