<svg width="192" height="114" viewBox="0 0 192 114" fill="none" xmlns="http://www.w3.org/2000/svg">
<path d="M159.341 58.6855H130.613C130.525 63.9418 130.04 69.1838 129.162 74.367H156.265C158.103 69.3323 159.14 64.0411 159.341 58.6855Z" fill="#23F3A8"/>
<path d="M156.265 39.084H129.162C130.04 44.2671 130.525 49.5092 130.613 54.7654H159.341C159.14 49.4098 158.103 44.1186 156.265 39.084Z" fill="#23F3A8"/>
<path d="M143.876 19.4824H123.43C125.617 24.527 127.286 29.7812 128.409 35.1638H154.659C151.988 29.3588 148.34 24.0548 143.876 19.4824Z" fill="#23F3A8"/>
<path d="M143.876 93.9685C148.34 89.396 151.986 84.092 154.657 78.2871H128.409C127.286 83.6697 125.617 88.924 123.43 93.9685H143.876Z" fill="#23F3A8"/>
<path d="M121.55 97.8887C118.504 103.732 114.885 108.393 110.804 111.755C110.659 111.875 110.512 111.992 110.365 112.11C114.473 111.256 118.493 110.023 122.373 108.429C128.677 105.861 134.53 102.303 139.711 97.8887H121.55Z" fill="#23F3A8"/>
<path d="M121.55 15.5619H139.711C134.531 11.1475 128.678 7.58939 122.375 5.02203C118.495 3.42709 114.475 2.19476 110.367 1.34082C110.514 1.45843 110.661 1.57604 110.806 1.69561C114.893 5.05731 118.504 9.71861 121.55 15.5619Z" fill="#23F3A8"/>
<path d="M29.873 97.8896C37.5177 102.202 46.215 105.713 55.8395 108.351C58.67 109.127 61.5449 109.818 64.4643 110.423C57.8232 107.265 51.7502 103.03 46.4914 97.8896H29.873Z" fill="#23F3A8"/>
<path d="M64.4604 3.02832C61.5462 3.63336 58.6713 4.324 55.8356 5.10023C46.2111 7.73863 37.5099 11.2493 29.873 15.5617H46.4914C51.749 10.4217 57.8206 6.18676 64.4604 3.02832Z" fill="#23F3A8"/>
<path d="M33.06 78.2871H7.15234C11.1276 83.9991 16.6278 89.2641 23.5512 93.9685H42.8138C38.758 89.287 35.4662 83.9948 33.06 78.2871Z" fill="#23F3A8"/>
<path d="M42.8138 19.4824H23.5512C16.6278 24.1868 11.1276 29.4519 7.15234 35.1638H33.06C35.4662 29.4562 38.758 24.164 42.8138 19.4824Z" fill="#23F3A8"/>
<path d="M28.7342 58.6855H0.0078125C0.31556 64.0388 1.89154 69.3019 4.71224 74.367H31.5804C29.8794 69.3047 28.9207 64.0227 28.7342 58.6855Z" fill="#23F3A8"/>
<path d="M31.5804 39.084H4.70442C1.89157 44.1491 0.315588 49.4122 0 54.7654H28.7342C28.9208 49.4282 29.8794 44.1463 31.5804 39.084Z" fill="#23F3A8"/>
<path d="M70.4462 97.8887H52.2871C57.4673 102.303 63.3197 105.861 69.6229 108.429C73.5034 110.023 77.5233 111.256 81.6309 112.11C81.4839 111.992 81.3369 111.875 81.1919 111.755C77.1049 108.393 73.4943 103.732 70.4462 97.8887Z" fill="#23F3A8"/>
<path d="M68.5694 93.9685C66.382 88.9239 64.7137 83.6696 63.5905 78.2871H37.3398C40.0108 84.092 43.6573 89.396 48.1208 93.9685H68.5694Z" fill="#23F3A8"/>
<path d="M48.1228 19.4824C43.6593 24.055 40.0128 29.3589 37.3418 35.1638H63.5905C64.7137 29.7813 66.3819 24.5271 68.5694 19.4824H48.1228Z" fill="#23F3A8"/>
<path d="M62.8371 39.084H35.7337C33.8966 44.1186 32.8589 49.4098 32.6582 54.7654H61.3865C61.4744 49.5092 61.9593 44.2671 62.8371 39.084Z" fill="#23F3A8"/>
<path d="M35.7337 74.367H62.8371C61.9593 69.1838 61.4744 63.9418 61.3865 58.6855H32.6582C32.8589 64.0411 33.8966 69.3323 35.7337 74.367Z" fill="#23F3A8"/>
<path d="M70.4462 15.5619C73.4943 9.71861 77.1108 5.05731 81.1938 1.69561C81.3389 1.57604 81.4859 1.45843 81.6329 1.34082C77.5252 2.19476 73.5054 3.42709 69.6249 5.02203C63.321 7.5892 57.4679 11.1474 52.2871 15.5619H70.4462Z" fill="#23F3A8"/>
<path d="M72.8686 93.9685H94.0385V78.2871H67.6016C68.8796 83.9971 70.6477 89.2641 72.8686 93.9685Z" fill="#23F3A8"/>
<path d="M66.816 74.367H94.0389V58.6855H65.3066C65.3973 63.9442 65.9019 69.1876 66.816 74.367Z" fill="#23F3A8"/>
<path d="M67.6016 35.1638H94.0385V19.4824H72.8686C70.6477 24.1868 68.8796 29.4538 67.6016 35.1638Z" fill="#23F3A8"/>
<path d="M74.9141 15.5618H94.0395V0C86.9397 0.860517 80.1477 6.3941 74.9141 15.5618Z" fill="#23F3A8"/>
<path d="M65.3066 54.7654H94.0389V39.084H66.816C65.9019 44.2634 65.3973 49.5067 65.3066 54.7654Z" fill="#23F3A8"/>
<path d="M94.0395 113.451V97.8896H74.9141C80.1477 107.057 86.9397 112.591 94.0395 113.451Z" fill="#23F3A8"/>
<path d="M126.691 58.6855H97.959V74.367H125.182C126.096 69.1876 126.601 63.9442 126.691 58.6855Z" fill="#23F3A8"/>
<path d="M125.182 39.084H97.959V54.7654H126.691C126.601 49.5067 126.096 44.2634 125.182 39.084Z" fill="#23F3A8"/>
<path d="M119.129 19.4824H97.959V35.1638H124.396C123.118 29.4538 121.348 24.1868 119.129 19.4824Z" fill="#23F3A8"/>
<path d="M124.396 78.2871H97.959V93.9685H119.129C121.348 89.2641 123.118 83.9971 124.396 78.2871Z" fill="#23F3A8"/>
<path d="M97.959 0V15.5618H117.084C111.851 6.3941 105.059 0.860517 97.959 0Z" fill="#23F3A8"/>
<path d="M117.084 97.8887H97.959V113.451C105.059 112.59 111.851 107.056 117.084 97.8887Z" fill="#23F3A8"/>
<path d="M163.266 54.7654H191.992C191.685 49.4122 190.109 44.1491 187.288 39.084H160.42C162.121 44.1463 163.08 49.4282 163.266 54.7654Z" fill="#23F3A8"/>
<path d="M160.42 74.367H187.296C190.109 69.3019 191.685 64.0388 192 58.6855H163.266C163.08 64.0227 162.121 69.3047 160.42 74.367Z" fill="#23F3A8"/>
<path d="M149.186 93.9685H168.448C175.372 89.2641 180.872 83.9991 184.847 78.2871H158.939C156.533 83.9948 153.241 89.287 149.186 93.9685Z" fill="#23F3A8"/>
<path d="M158.939 35.1638H184.847C180.872 29.4519 175.372 24.1868 168.448 19.4824H149.186C153.241 24.164 156.533 29.4562 158.939 35.1638Z" fill="#23F3A8"/>
<path d="M162.126 15.5617C154.482 11.2493 145.784 7.73863 136.16 5.10023C133.329 4.324 130.455 3.63336 127.535 3.02832C134.176 6.18639 140.249 10.4214 145.508 15.5617H162.126Z" fill="#23F3A8"/>
<path d="M127.539 110.423C130.453 109.818 133.328 109.127 136.164 108.351C145.788 105.713 154.49 102.202 162.126 97.8896H145.508C140.25 103.03 134.179 107.265 127.539 110.423Z" fill="#23F3A8"/>
</svg>
